<?xml version="1.0" encoding="UTF-8"?>
<!DOCTYPE svg PUBLIC "-//W3C//DTD SVG 1.1//EN" "http://www.w3.org/Graphics/SVG/1.1/DTD/svg11.dtd">
<!-- Creator: CorelDRAW X5 -->
<svg xmlns="http://www.w3.org/2000/svg" xml:space="preserve" width="87.014mm" height="91.6548mm" style="shape-rendering:geometricPrecision; text-rendering:geometricPrecision; image-rendering:optimizeQuality; fill-rule:evenodd; clip-rule:evenodd"
viewBox="0 0 165 174"
 xmlns:xlink="http://www.w3.org/1999/xlink">
 <defs>
  <style type="text/css">
   <![CDATA[
    .fil1 {fill:#070707}
    .fil2 {fill:#7F7F80}
    .fil0 {fill:#F3F3F5}
   ]]>
  </style>
 </defs>
 <g id="Layer_x0020_1">
  <metadata id="CorelCorpID_0Corel-Layer"/>
  <g id="_354095920">
   <path class="fil0" d="M30 66c1,-1 1,-1 5,-2 2,0 5,-1 7,-1l41 -5c7,-1 49,-7 52,-5 -3,3 -100,14 -104,13zm104 -20c-5,-1 -5,-5 0,-6 2,3 2,3 0,6zm-32 -28c11,-1 22,-3 25,6 4,11 -2,20 -9,23 -7,3 -46,7 -57,8 -10,1 -20,4 -24,-6 -4,-10 2,-20 8,-24 7,-4 46,-7 57,-9zm5 -8c-34,3 -70,1 -79,27 -4,10 -1,23 -3,33 -6,26 -25,70 -13,83 7,8 18,6 29,5 58,-7 70,2 86,-56 3,-12 15,-45 12,-56 -5,-21 -9,-39 -33,-37z"/>
   <path class="fil0" d="M6 151c-5,-21 4,-38 9,-58 2,-8 7,-21 7,-29 1,-19 -2,-39 23,-49 7,-3 23,-4 31,-5 26,-3 42,-9 56,9 6,8 7,15 9,27 2,10 -2,19 -5,29 -4,14 -10,44 -17,56 -15,28 -41,26 -79,30 -16,1 -17,3 -30,-3l-1 0c14,16 38,14 63,11 34,-4 41,-1 58,-24 10,-13 15,-41 21,-61 6,-23 16,-42 3,-63 -4,-7 -13,-14 -24,-17 -6,-1 -29,2 -37,3 -24,3 -50,3 -64,16 -8,8 -8,19 -8,32 0,14 -4,22 -7,34 -4,17 -18,48 -9,62z"/>
   <path class="fil1" d="M10 157c-2,-2 -1,1 -2,-2 0,0 -1,-3 -2,-4 -9,-14 4,-45 9,-62 3,-12 7,-20 7,-34 0,-14 0,-24 8,-32 14,-14 40,-14 64,-16 8,-1 31,-4 37,-3 11,3 20,10 24,17 13,21 3,41 -3,63 -5,19 -11,48 -21,61 -17,22 -24,19 -58,24 -25,3 -49,5 -63,-11zm154 -107c6,-24 -14,-46 -32,-50 -7,-2 -65,6 -76,7 -35,5 -36,25 -37,49 -1,17 -12,50 -17,68 -8,29 7,43 31,49 10,3 65,-3 76,-7 20,-7 30,-25 36,-49 6,-22 13,-45 18,-67z"/>
   <path class="fil0" d="M84 26c3,3 6,7 5,13 -1,5 -5,10 -11,8 -6,-2 -11,-22 6,-21zm-44 21l-2 0c3,13 24,6 45,4 18,-2 38,-2 41,-14 7,-24 -20,-17 -35,-15 -10,1 -41,3 -47,9 10,-4 33,-8 28,11 -3,11 -27,16 -31,5z"/>
   <path class="fil1" d="M106 9c23,-2 28,16 33,37 2,11 -9,43 -12,56 -16,58 -28,49 -86,56 -12,1 -22,3 -29,-5 -12,-13 7,-57 13,-83 2,-10 0,-23 3,-33 9,-26 45,-24 79,-27zm-100 142c3,2 0,-1 3,3 0,1 2,3 2,3 13,6 14,4 30,3 37,-3 64,-2 79,-30 6,-12 12,-41 17,-56 3,-10 7,-18 5,-29 -2,-12 -3,-19 -9,-27 -13,-18 -30,-12 -56,-9 -8,1 -24,2 -31,5 -25,10 -22,30 -23,49 0,8 -5,21 -7,29 -5,20 -14,37 -9,58z"/>
   <path class="fil1" d="M51 30c8,-1 16,-2 18,6 2,8 -4,12 -10,13 -25,6 -23,-16 -8,-19zm-12 5c1,-8 -1,-2 4,-5 -2,3 -1,3 -4,5zm-1 12c-1,-1 -1,0 -1,-3 0,-2 0,-2 0,-3 0,-1 2,-4 2,-5l1 11c4,11 28,6 31,-5 5,-20 -17,-15 -28,-11 6,-6 37,-8 47,-9 14,-2 42,-9 35,15 -4,13 -23,12 -41,14 -21,3 -41,9 -45,-4zm63 -29c-11,1 -50,5 -57,9 -6,4 -12,14 -8,24 4,9 14,7 24,6 10,-1 50,-5 57,-8 7,-3 13,-12 9,-23 -3,-10 -14,-8 -25,-6z"/>
   <path class="fil0" d="M51 30c-15,3 -17,25 8,19 6,-1 11,-6 10,-13 -2,-8 -10,-7 -18,-6z"/>
   <path class="fil1" d="M84 26c-16,-1 -12,19 -6,21 6,2 10,-3 11,-8 1,-6 -2,-9 -5,-13z"/>
   <path class="fil1" d="M30 66c4,2 102,-10 104,-13 -3,-2 -44,4 -52,5l-41 5c-2,0 -5,0 -7,1 -4,1 -4,1 -5,2z"/>
   <path class="fil2" d="M38 47l2 0 -1 -11c0,1 -2,3 -2,5 0,2 0,2 0,3 0,4 1,3 1,3z"/>
   <path class="fil1" d="M133 46c2,-3 2,-3 0,-6 -5,2 -5,5 0,6z"/>
   <path class="fil2" d="M10 157l1 0c0,0 -1,-2 -2,-3 -3,-3 0,-1 -3,-3 0,0 1,4 2,4 2,3 0,0 2,2z"/>
   <path class="fil2" d="M39 35c2,-2 2,-2 4,-5 -5,2 -2,-4 -4,5z"/>
  </g>
 </g>
</svg>
