<?xml version="1.0" encoding="UTF-8"?>
<!DOCTYPE svg PUBLIC "-//W3C//DTD SVG 1.1//EN" "http://www.w3.org/Graphics/SVG/1.1/DTD/svg11.dtd">
<!-- Creator: CorelDRAW X5 -->
<svg xmlns="http://www.w3.org/2000/svg" xml:space="preserve" width="252.769mm" height="268.579mm" style="shape-rendering:geometricPrecision; text-rendering:geometricPrecision; image-rendering:optimizeQuality; fill-rule:evenodd; clip-rule:evenodd"
viewBox="0 0 5386 5723"
 xmlns:xlink="http://www.w3.org/1999/xlink">
 <defs>
  <style type="text/css">
   <![CDATA[
    .str0 {stroke:white;stroke-width:21.3082}
    .fil0 {fill:black}
    .fil2 {fill:red}
    .fil1 {fill:white}
   ]]>
  </style>
 </defs>
 <g id="Layer_x0020_1">
  <metadata id="CorelCorpID_0Corel-Layer"/>
  <g id="_298441800">
   <rect class="fil0 str0" transform="matrix(0.556139 -0.188488 0.235899 0.696027 13.5097 3582.98)" width="2300" height="203"/>
   <path class="fil1" d="M3888 2110l0 1305c0,60 48,95 100,63 15,-9 327,-314 378,-361l189 -180c56,-52 433,-409 471,-452l330 -316c22,-21 30,-29 30,-71l0 -1299c0,-63 -51,-99 -103,-63 -17,12 -493,474 -566,541 -152,141 -317,309 -472,451l-283 271c-27,25 -74,58 -74,111z"/>
   <path class="fil1" d="M2527 2312c136,6 294,34 413,74 55,18 44,33 144,-70l871 -833c69,-73 67,-41 67,-173l0 -1225c0,-96 -68,-105 -123,-55 -286,265 -581,565 -871,834 -38,35 -486,464 -495,478 -18,30 -10,612 -10,725 0,68 -7,183 2,245z"/>
   <g>
    <path class="fil1" d="M2165 4700c99,-17 177,57 191,134 19,102 -51,184 -132,200 -224,43 -291,-294 -60,-333zm-1083 -34c29,-135 -43,-297 54,-223 20,15 42,31 63,43l1 258c21,20 174,106 218,131 29,17 55,20 55,60 0,76 4,89 -57,53l-175 -103c-38,-23 -37,-4 -37,-4 -27,44 14,195 -11,246 -18,17 -77,-39 -107,-56l-3 -272c-20,-24 -115,-72 -145,-90 -116,-69 -144,-56 -123,-174 57,-3 206,132 267,131zm3254 -1392c-28,12 -236,227 -295,277 -38,31 -94,48 -152,29 -120,-40 -112,-135 -112,-275 0,-129 0,-258 0,-388 -6,-23 -259,-143 -279,-153 -332,-163 -541,-321 -959,-352 -427,-32 -691,97 -1022,271 -147,77 -777,393 -857,447 -76,51 -150,135 -194,243 -53,129 -41,250 -41,399 0,134 -14,114 41,177 92,105 104,176 -1,291 -53,58 -40,24 -40,185 0,147 -18,276 49,391 60,103 132,129 245,191 233,129 977,545 1135,607 345,137 747,146 1107,15 116,-42 196,-88 296,-141 282,-150 558,-306 843,-461 108,-59 195,-94 260,-177 84,-108 72,-206 72,-363l0 -874c0,-104 -28,-276 -97,-338z"/>
    <path class="fil1" d="M1082 4667c-60,1 -209,-134 -267,-131 -21,118 7,105 123,174 30,18 125,66 145,90l3 272c30,17 90,74 107,56 25,-52 -16,-202 11,-246 0,0 -2,-19 37,4l175 103c61,36 57,23 57,-53 0,-41 -26,-44 -55,-60 -44,-26 -197,-112 -218,-131l-1 -258c-21,-12 -43,-28 -63,-43 -97,-74 -25,88 -54,223z"/>
   </g>
   <path class="fil0" d="M2178 4699c-231,40 -164,377 60,333 80,-16 151,-98 132,-200 -15,-77 -93,-151 -191,-134z"/>
   <path class="fil0 str0" d="M2943 4626l1587 -555c20,-7 2,38 -4,59l-33 120c-6,21 -16,40 -36,47l-1455 503c-20,7 -43,-4 -50,-25l-34 -100c-7,-20 4,-43 25,-50z"/>
   <path class="fil0 str0" d="M2499 4790l-40 -8 -43 122 -154 -61 -40 123 -137 -57c-2,-34 20,-85 32,-124l150 59 43 -131 148 58 18 -25 37 -96c9,-2 10,-3 25,-1l61 21c32,12 53,17 82,35l-54 134 -129 -50zm-189 -76l-123 -45c-28,-3 -19,-6 -36,5l-32 106c-54,-14 -92,-41 -145,-47l-32 110 -132 -51 30 -119 139 55 35 -121 140 48 13 -17 36 -113 153 56 -46 134zm-1601 -510l-13 107 -92 -35 13 -107 92 35zm-83 -149l-14 109 -88 -33 -13 103 -84 -40 8 -101 87 39 14 -110 90 34zm83 149l14 -111 99 38 13 -117c137,47 99,20 89,157l-103 -38 -15 110 -97 -39zm-83 -149l10 -116 97 39 -10 115 -97 -38zm-600 -460c-4,46 -1,98 -3,151 -2,71 -7,87 77,105 -15,151 0,87 83,147 -21,114 -15,96 75,134 -10,53 -9,55 -7,98l488 222c58,25 110,-1 122,-67 33,24 97,14 111,-68 30,13 29,19 61,8 86,-31 82,-174 74,-203 19,4 117,38 135,47 53,26 18,22 -19,227 -9,48 78,47 118,76 -25,75 -71,126 92,160 -12,64 -48,94 -7,126l385 171c87,39 170,75 255,112 55,24 222,105 263,116 12,-45 32,-64 43,-113 59,11 106,40 154,61 16,-38 36,-76 44,-124 73,13 114,48 175,65 9,-33 41,-111 57,-133 61,11 121,4 182,10 47,-109 108,-152 130,-272 7,-38 -22,-38 -61,-51 -592,-206 -1209,-409 -1794,-619 -118,-42 -253,-91 -376,-130 -128,-41 -247,-86 -376,-130 -71,-25 -119,-41 -188,-65 -305,-107 -172,-47 -291,-59z"/>
   <path class="fil1" d="M2459 4782l-1 -9 -148 -58 -43 131 -150 -59c-12,39 -33,90 -32,124l137 57 40 -123 154 61 43 -122z"/>
   <path class="fil1" d="M2152 4674l2 -20 -140 -48 -35 121 -139 -55 -30 119 132 51 32 -110c53,6 91,33 145,47l32 -106z"/>
   <path class="fil1" d="M2477 4748l-6 27 28 16 129 50 54 -134c-30,-18 -51,-22 -82,-35l-61 -21c-15,-2 -15,-1 -25,1l-37 96z"/>
   <path class="fil1" d="M710 4205l97 39 15 -110 103 38c10,-138 48,-110 -89,-157l-13 117 -99 -38 -14 111z"/>
   <path class="fil1" d="M2167 4637c16,34 -17,-3 20,32l123 45 46 -134 -153 -56 -36 113z"/>
   <polygon class="fil1" points="627,4055 537,4021 524,4132 437,4093 429,4194 513,4234 525,4132 613,4164 "/>
   <polygon class="fil1" points="627,4055 724,4093 734,3978 638,3939 "/>
   <polygon class="fil1" points="710,4205 618,4170 605,4277 697,4312 "/>
   <path class="fil2" d="M2152 4674c17,-10 8,-7 36,-5 -38,-35 -4,2 -20,-32l-13 17 -2 20z"/>
   <polygon class="fil2" points="2458,4773 2459,4782 2499,4790 2471,4774 2477,4748 "/>
   <polygon class="fil0" points="1092,4431 1194,4490 1198,5117 1092,5042 "/>
   <polygon class="fil0" points="1463,4857 1455,4988 827,4640 830,4507 "/>
  </g>
 </g>
</svg>
